<?xml version="1.0" standalone="no"?>
<!DOCTYPE svg PUBLIC "-//W3C//DTD SVG 20010904//EN"
 "http://www.w3.org/TR/2001/REC-SVG-20010904/DTD/svg10.dtd">
<svg version="1.0" xmlns="http://www.w3.org/2000/svg"
 width="1010.000000pt" height="1010.000000pt" viewBox="0 0 1010.000000 1010.000000"
 preserveAspectRatio="xMidYMid meet">
<metadata>
Created by potrace 1.14, written by Peter Selinger 2001-2017
</metadata>
<g transform="translate(0.000000,1010.000000) scale(0.100000,-0.100000)"
fill="#000000" stroke="none">
<path d="M4880 10028 c-69 -39 -278 -160 -465 -268 -187 -108 -464 -268 -615
-355 -151 -87 -387 -224 -525 -303 -137 -80 -306 -177 -375 -217 -69 -39 -343
-198 -610 -352 -552 -319 -741 -428 -1205 -696 -389 -224 -399 -230 -414 -263
-16 -36 -16 -5012 0 -5048 14 -30 42 -50 214 -149 277 -159 414 -238 1140
-657 413 -238 806 -466 875 -505 69 -40 238 -137 375 -217 138 -79 374 -216
525 -303 151 -87 428 -247 615 -355 616 -356 586 -340 634 -340 55 0 -46 -56
1061 585 135 78 412 238 615 355 414 239 716 413 1195 690 665 384 1021 590
1249 721 167 96 239 143 252 164 18 29 19 107 19 2535 0 2429 -1 2506 -19
2535 -14 22 -105 80 -347 219 -181 104 -439 253 -574 331 -517 299 -1155 667
-1740 1005 -184 106 -477 275 -650 375 -755 437 -889 514 -951 548 -100 56
-126 53 -279 -35z m523 -280 c439 -253 750 -433 1157 -668 184 -106 461 -266
615 -355 154 -89 474 -274 710 -410 237 -137 505 -291 596 -344 91 -53 310
-179 487 -281 l321 -185 0 -2455 0 -2455 -321 -185 c-177 -102 -396 -228 -487
-281 -91 -53 -359 -207 -596 -344 -236 -136 -558 -322 -715 -413 -157 -90
-406 -234 -555 -320 -148 -86 -407 -235 -575 -332 -168 -97 -459 -265 -647
-374 l-342 -198 -143 83 c-79 45 -303 174 -498 287 -951 549 -1261 728 -1440
832 -607 350 -762 439 -1135 655 -225 130 -548 316 -717 413 l-307 177 0 2455
0 2455 711 410 c391 226 829 478 972 561 144 83 369 213 501 289 132 76 427
246 655 378 228 132 589 340 801 463 213 123 433 250 490 283 57 33 110 58
117 56 7 -3 162 -91 345 -197z"/>
<path d="M7622 5799 c-340 -44 -583 -228 -673 -509 l-18 -55 0 273 -1 272 -85
0 -85 0 -2 -609 -3 -610 -570 609 -570 609 -82 1 -83 0 0 -320 0 -320 -565 0
-565 0 -2 318 -3 317 -737 3 -738 2 -2 -612 -3 -613 -574 613 -575 612 -78 0
-78 0 0 -730 0 -730 80 0 80 0 0 615 0 615 73 -78 c41 -42 246 -261 457 -487
211 -225 438 -467 503 -537 l120 -128 78 0 79 0 2 658 3 657 242 3 243 2 2
-657 3 -658 83 -3 82 -3 0 661 0 660 243 -2 242 -3 3 -658 2 -658 83 3 82 3 3
333 2 332 565 0 565 0 0 -335 0 -335 85 0 85 0 2 611 3 611 570 -611 570 -610
80 2 80 2 5 275 c3 178 8 263 13 240 5 -19 29 -77 53 -127 94 -197 281 -337
525 -394 125 -30 344 -32 469 -6 366 78 580 320 580 654 l0 93 -402 -2 -403
-3 -3 -62 -3 -63 326 0 325 0 -6 -42 c-40 -251 -232 -409 -536 -440 -379 -40
-684 135 -763 438 -21 80 -20 273 1 345 87 297 389 462 769 420 232 -26 407
-129 495 -290 l25 -46 83 -3 c98 -3 98 -3 46 107 -49 103 -166 218 -279 278
-175 91 -410 130 -623 102z"/>
</g>
</svg>
